<svg xmlns="http://www.w3.org/2000/svg" viewBox="0 0 500 500" xmlns:v="https://vecta.io/nano"><style>.B{isolation:isolate}.F{mix-blend-mode:lighten}</style><defs><radialGradient id="A" cx="156.743" cy="142.348" r="422.568" gradientTransform="matrix(1, 0, 0, 1, 0.048, -0.05)" gradientUnits="userSpaceOnUse"><stop offset="0" stop-color="#54b7ea"/><stop offset="1" stop-color="#3376e0"/></radialGradient><radialGradient id="B" cx="313.632" cy="309.107" r="166.869" gradientTransform="matrix(0.993, -0.121, 0.121, 0.993, -28.63, 34.068)" gradientUnits="userSpaceOnUse"><stop offset="0" stop-color="#4db0d7"/><stop offset="1" stop-color="#1a66cd"/></radialGradient><clipPath id="C"><path d="M482.31 395.931l.1 2.375q-.022 1.182-.074 2.367a36.484 36.484 0 0 1-1.943 9.243 52.978 52.978 0 0 1-9.76 16.345 98.908 98.908 0 0 1-13.969 13.312 193.91 193.91 0 0 1-32.915 20.527 282.988 282.988 0 0 1-35.809 15.21l-4.607 1.46-4.671 1.185-9.51 1.736a75.068 75.068 0 0 1-19.2.412 38.513 38.513 0 0 1-9.208-2.23 21.976 21.976 0 0 1-7.818-4.949 18.3 18.3 0 0 1-4.583-7.912 27.915 27.915 0 0 1-.879-9.343l.143-1.79a52.05 52.05 0 0 1 1.4-7.657l.626-2.3a13.574 13.574 0 0 1 .954-2.081l.831-1.451 1.7-2.605a62.416 62.416 0 0 1 13.62-13.585.691.691 0 0 0 .21-.832.684.684 0 0 0-.906-.323l-.1.053a61.988 61.988 0 0 0-8.743 5.128 56.227 56.227 0 0 0-7.858 6.844l-2.444 2.837q-2.595-1.45-5.185-2.943l-7.552-4.427a315.637 315.637 0 0 0-31.989-16.18c-10.893-4.8-21.951-9.065-32.921-13.185-10.973-4.14-21.871-8.158-32.278-12.78a157.7 157.7 0 0 1-15.09-7.576c-2.434-1.365-4.774-2.872-6.971-4.367a66.469 66.469 0 0 1-6.212-4.993 53.659 53.659 0 0 1-5.383-5.72 47.367 47.367 0 0 1-4.309-6.4 37.724 37.724 0 0 1-4.545-14.364 34.487 34.487 0 0 1 1.763-14.844 38.442 38.442 0 0 1 7.472-12.72 22.97 22.97 0 0 0-.479.361l.779-.71-.3.349a35.482 35.482 0 0 1 12.646-5.917 49.086 49.086 0 0 1 15.161-1.248 79.064 79.064 0 0 1 15.714 2.7c2.611.678 5.2 1.51 7.78 2.414a56.28 56.28 0 0 1 2.2.809l4.984 8.629a4.263 4.263 0 0 0 7.375-4.276l-2.3-4.132-10.5-19.541-2.268-4.055c-3.694-6.57-7.578-13.047-11.588-19.4-4.836-7.67-9.854-15.187-14.929-22.667l-15.459-22.219-15.671-21.982c-5.183-7.3-10.363-14.571-14.949-21.929a98.108 98.108 0 0 1-6.058-11.077 33.742 33.742 0 0 1-3.214-10.719 18.154 18.154 0 0 1 1.734-9.642 37.119 37.119 0 0 1 6.163-8.923 28.123 28.123 0 0 1 7.368-4.749 20.563 20.563 0 0 1 8.214-1.684c5.666-.047 11.7 2.389 17.44 5.858a99.4 99.4 0 0 1 16.369 13.042 192.367 192.367 0 0 1 14.838 15.989c4.778 5.713 9.482 11.475 14.088 17.349l6.9 8.809 5.385 7.049 1.416 1.862q2.666 3.513 5.295 7.06l21.221 29.142.024.037a3.59 3.59 0 0 0 6.1-3.758c-3.567-6.767-7.384-13.272-11.292-19.776q-3.761-6.174-7.662-12.251c1.834-1.313 3.687-2.556 5.577-3.744a79.134 79.134 0 0 1 15.672-7.7 54.3 54.3 0 0 1 16.464-3.2c.662-.02 1.337-.022 1.993-.012 1.07.1 2.134.233 3.2.365a55.574 55.574 0 0 1 8.641 1.8 51.426 51.426 0 0 1 16.347 8.54 53.522 53.522 0 0 1 10.632 12.322c3.212 5.592 4.851 9.935 7.695 16.065l.013.019a1.595 1.595 0 0 0 3.015-.388 46.2 46.2 0 0 0-1.257-21.255c-.135-.447-.252-.906-.405-1.341l-.493-1.31c-.34-.885-.67-1.771-1.077-2.628s-.889-1.675-1.335-2.517a22.67 22.67 0 0 0-1.618-2.361c-.551-.719-1.131-1.424-1.738-2.1l-.33.353c-.026.033-.062.068-.088.1a7.041 7.041 0 0 0 .22-.672c.069.072.129.146.2.218.054-.057.106-.124.169-.182a26.611 26.611 0 0 1 2.775-2.434 41.947 41.947 0 0 1 6.723-4.267 38.784 38.784 0 0 1 14.978-4.228 33.309 33.309 0 0 1 14.9 2.533 47.349 47.349 0 0 1 13.393 8.7 82.725 82.725 0 0 1 11.272 12.767 152 152 0 0 1 17 31.057 247.424 247.424 0 0 1 11.2 34.427 342.079 342.079 0 0 1 9.864 72.579l.129 9.545a44.809 44.809 0 0 0-4.826 1.234 31.74 31.74 0 0 0-4.768 1.872l-.086.041a.687.687 0 0 0-.358.779.673.673 0 0 0 .826.494 42.309 42.309 0 0 1 9.2-1.225h.292a37.78 37.78 0 0 1 9.5.954 30.246 30.246 0 0 1 5.393 1.84 25.253 25.253 0 0 1 10.105 8.245c3.754 5.082 5.679 11.355 6.581 17.672a63.09 63.09 0 0 1 .498 4.762z" fill="none"/></clipPath></defs><g class="B"><path d="M482.31,395.931c.069.807.063,1.584.1,2.375q-.022,1.182-.074,2.367a36.484,36.484,0,0,1-1.943,9.243,52.978,52.978,0,0,1-9.76,16.345,98.908,98.908,0,0,1-13.969,13.312A193.91,193.91,0,0,1,423.749,460.1,282.988,282.988,0,0,1,387.94,475.31c-1.529.52-3.07,1.01-4.607,1.46s-3.093.821-4.671,1.185c-3.146.717-6.318,1.306-9.51,1.736a75.068,75.068,0,0,1-19.2.412,38.513,38.513,0,0,1-9.208-2.23,21.976,21.976,0,0,1-7.818-4.949,18.3,18.3,0,0,1-4.583-7.912,27.915,27.915,0,0,1-.879-9.343c.037-.6.085-1.2.143-1.79a52.05,52.05,0,0,1,1.4-7.657c.186-.788.418-1.532.626-2.3a13.574,13.574,0,0,1,.954-2.081c.263-.485.536-.972.831-1.451.527-.881,1.105-1.757,1.7-2.605A62.416,62.416,0,0,1,346.738,424.2a.691.691,0,0,0,.21-.832.684.684,0,0,0-.906-.323l-.1.053a61.988,61.988,0,0,0-8.743,5.128,56.227,56.227,0,0,0-7.858,6.844c-.826.907-1.659,1.835-2.444,2.837q-2.595-1.45-5.185-2.943l-7.552-4.427a315.637,315.637,0,0,0-31.989-16.18c-10.893-4.8-21.951-9.065-32.921-13.185-10.973-4.14-21.871-8.158-32.278-12.78a157.7,157.7,0,0,1-15.09-7.576c-2.434-1.365-4.774-2.872-6.971-4.367a66.469,66.469,0,0,1-6.212-4.993,53.659,53.659,0,0,1-5.383-5.72,47.367,47.367,0,0,1-4.309-6.4,37.724,37.724,0,0,1-4.545-14.364,34.487,34.487,0,0,1,1.763-14.844,38.442,38.442,0,0,1,7.472-12.72c-.166.121-.323.241-.479.361l.779-.71c-.1.113-.2.227-.3.349a35.482,35.482,0,0,1,12.646-5.917,49.086,49.086,0,0,1,15.161-1.248,79.064,79.064,0,0,1,15.714,2.7c2.611.678,5.2,1.51,7.78,2.414.736.253,1.474.525,2.2.809,1.632,2.883,3.284,5.764,4.984,8.629a4.263,4.263,0,0,0,7.375-4.276c-.771-1.366-1.544-2.743-2.3-4.132-3.514-6.421-6.9-12.989-10.5-19.541-.75-1.359-1.5-2.708-2.268-4.055-3.694-6.57-7.578-13.047-11.588-19.4-4.836-7.67-9.854-15.187-14.929-22.667-5.082-7.458-10.283-14.822-15.459-22.219-5.192-7.375-10.458-14.69-15.671-21.982-5.183-7.3-10.363-14.571-14.949-21.929a98.108,98.108,0,0,1-6.058-11.077,33.742,33.742,0,0,1-3.214-10.719,18.154,18.154,0,0,1,1.734-9.642,37.119,37.119,0,0,1,6.163-8.923,28.123,28.123,0,0,1,7.368-4.749A20.563,20.563,0,0,1,176.1,137.8c5.666-.047,11.7,2.389,17.44,5.858A99.4,99.4,0,0,1,209.909,156.7a192.367,192.367,0,0,1,14.838,15.989c4.778,5.713,9.482,11.475,14.088,17.349,2.339,2.9,4.6,5.876,6.9,8.809l5.385,7.049,1.416,1.862q2.666,3.513,5.295,7.06c7.191,9.629,14.276,19.382,21.221,29.142l.024.037a3.59,3.59,0,0,0,6.1-3.758c-3.567-6.767-7.384-13.272-11.292-19.776q-3.761-6.174-7.662-12.251c1.834-1.313,3.687-2.556,5.577-3.744a79.134,79.134,0,0,1,15.672-7.7,54.3,54.3,0,0,1,16.464-3.2c.662-.02,1.337-.022,1.993-.012,1.07.1,2.134.233,3.2.365a55.574,55.574,0,0,1,8.641,1.8,51.426,51.426,0,0,1,16.347,8.54,53.522,53.522,0,0,1,10.632,12.322c3.212,5.592,4.851,9.935,7.695,16.065l.013.019a1.595,1.595,0,0,0,3.015-.388,46.2,46.2,0,0,0-1.257-21.255c-.135-.447-.252-.906-.405-1.341l-.493-1.31c-.34-.885-.67-1.771-1.077-2.628s-.889-1.675-1.335-2.517a22.67,22.67,0,0,0-1.618-2.361c-.551-.719-1.131-1.424-1.738-2.1l-.33.353c-.026.033-.062.068-.088.1a7.041,7.041,0,0,0,.22-.672c.069.072.129.146.2.218.054-.057.106-.124.169-.182a26.611,26.611,0,0,1,2.775-2.434,41.947,41.947,0,0,1,6.723-4.267,38.784,38.784,0,0,1,14.978-4.228,33.309,33.309,0,0,1,14.9,2.533,47.349,47.349,0,0,1,13.393,8.7,82.725,82.725,0,0,1,11.272,12.767,152,152,0,0,1,17,31.057,247.424,247.424,0,0,1,11.2,34.427,342.079,342.079,0,0,1,9.864,72.579c.087,3.183.134,6.371.129,9.545a44.809,44.809,0,0,0-4.826,1.234,31.74,31.74,0,0,0-4.768,1.872l-.086.041a.687.687,0,0,0-.358.779.673.673,0,0,0,.826.494,42.309,42.309,0,0,1,9.2-1.225l.292,0a37.78,37.78,0,0,1,9.5.954,30.246,30.246,0,0,1,5.393,1.84,25.253,25.253,0,0,1,10.105,8.245c3.754,5.082,5.679,11.355,6.581,17.672C482.041,392.74,482.2,394.333,482.31,395.931Z" stroke-miterlimit="10" fill="url(#A)" stroke="url(#B)"/><path d="M309.3 223.236l-.607-.269-.129-.226-.282-.58zm182.9 171.98l-1.006-5.438a46.686 46.686 0 0 0-11.247-22.32 31.775 31.775 0 0 0-9.488-7.242 37.577 37.577 0 0 0-9.545-2.412l.063-9.564a373.691 373.691 0 0 0-2.188-37.568c-1.4-12.734-2.608-23.715-5.543-36.282a237.919 237.919 0 0 0-11.813-37.071c-5.011-12.072-9.386-28.811-28.88-48.558-4.923-4.987-11.452-8.554-18.375-11.214-6.887-2.685-15.445-4.5-22.889-3.837a47.175 47.175 0 0 0-19.7 6.24 56.811 56.811 0 0 0-8.966 6.1 41.615 41.615 0 0 0-3.593 3.33c-1.138-.576-3.8-2.579-5.008-3.137a71.808 71.808 0 0 0-9.777-3.671 59.76 59.76 0 0 0-20.985-2.3 67.4 67.4 0 0 0-20.219 4.7 90.811 90.811 0 0 0-17.742 9.562q-2.805 1.9-5.46 3.961c-7.813-11.678-16.133-23.043-24.843-34.139a207.046 207.046 0 0 0-15.334-17.57 111.4 111.4 0 0 0-8.772-8.066 90.284 90.284 0 0 0-9.913-7.171 55.805 55.805 0 0 0-11.53-5.563 40.24 40.24 0 0 0-13.427-2.288 34.185 34.185 0 0 0-13.718 3 42.467 42.467 0 0 0-11.2 7.434l-.072.069c-.163.151-.306.3-.458.459a51.359 51.359 0 0 0-8.649 12.9 32.341 32.341 0 0 0-2.425 8.1 31.361 31.361 0 0 0-.187 8.525 46.789 46.789 0 0 0 4.625 14.94 110.343 110.343 0 0 0 7.242 12.353c5.157 7.741 10.669 14.926 16.13 22.107l16.355 21.394c10.736 14.324 21.225 28.849 31.087 43.683q7.39 11.141 14.071 22.661l2.755 4.821-1.826-.764a75.446 75.446 0 0 0-17.262-4.661 54.764 54.764 0 0 0-18.485.425 45.32 45.32 0 0 0-17.436 7.691 5.137 5.137 0 0 0-.728.643l-.052.067a49.854 49.854 0 0 0-10.3 16.763 45.916 45.916 0 0 0-2.64 19.7 49.538 49.538 0 0 0 5.663 18.974 58.861 58.861 0 0 0 5.346 8.222 64.357 64.357 0 0 0 6.527 7.161 77.357 77.357 0 0 0 7.365 6.112c2.612 1.837 5.178 3.539 7.825 5.089A173.17 173.17 0 0 0 211.706 400c10.922 5.042 21.992 9.15 32.875 13.382 10.91 4.2 21.664 8.445 32.154 13.168a309.4 309.4 0 0 1 30.533 15.723l7.57 4.5q3.127 1.84 6.316 3.621c-.436 1.544-.814 3.152-1.116 4.8a34.679 34.679 0 0 0 .037 12.175 27.106 27.106 0 0 0 6.015 12.292 32.174 32.174 0 0 0 10.815 7.957 47.446 47.446 0 0 0 11.623 3.607A82.577 82.577 0 0 0 370.8 492c3.595-.348 7.147-.873 10.683-1.536l2.636-.524 1.392-.311 1.418-.355c1.816-.473 3.5-.981 5.165-1.507 6.633-2.11 13.006-4.37 19.281-7.02q4.7-1.95 9.345-4.073l4.623-2.157 4.565-2.3a183.735 183.735 0 0 0 34.783-22.625A102.606 102.606 0 0 0 479.848 434a62.071 62.071 0 0 0 10.886-20.491 44.7 44.7 0 0 0 1.847-12.174c0-1.038-.031-2.072-.087-3.1l-.128-1.546c-.053-.52-.096-1.038-.166-1.473zm-9.886.715c.069.807.063 1.584.1 2.375q-.022 1.182-.074 2.367a36.484 36.484 0 0 1-1.943 9.243 52.978 52.978 0 0 1-9.76 16.345 98.908 98.908 0 0 1-13.969 13.312 193.91 193.91 0 0 1-32.919 20.527 282.988 282.988 0 0 1-35.809 15.21c-1.529.52-3.07 1.01-4.607 1.46s-3.093.821-4.671 1.185c-3.146.717-6.318 1.306-9.51 1.736a75.068 75.068 0 0 1-19.2.412 38.513 38.513 0 0 1-9.208-2.23 21.976 21.976 0 0 1-7.818-4.949 18.3 18.3 0 0 1-4.583-7.912 27.915 27.915 0 0 1-.879-9.343 49.47 49.47 0 0 1 .143-1.79 52.05 52.05 0 0 1 1.4-7.657c.186-.788.418-1.532.626-2.3a13.574 13.574 0 0 1 .954-2.081c.263-.485.536-.972.831-1.451a43.03 43.03 0 0 1 1.7-2.605 62.416 62.416 0 0 1 13.62-13.585.691.691 0 0 0 .21-.832.684.684 0 0 0-.906-.323l-.1.053a61.988 61.988 0 0 0-8.743 5.128 56.227 56.227 0 0 0-7.858 6.844c-.826.907-1.659 1.835-2.444 2.837q-2.595-1.45-5.185-2.943l-7.552-4.427a315.637 315.637 0 0 0-31.989-16.18c-10.893-4.8-21.951-9.065-32.921-13.185-10.973-4.14-21.871-8.158-32.278-12.78a157.7 157.7 0 0 1-15.09-7.576c-2.434-1.365-4.774-2.872-6.971-4.367a66.469 66.469 0 0 1-6.212-4.993 53.659 53.659 0 0 1-5.383-5.72 47.367 47.367 0 0 1-4.309-6.4 37.724 37.724 0 0 1-4.545-14.364 34.487 34.487 0 0 1 1.763-14.844 38.442 38.442 0 0 1 7.472-12.72 22.97 22.97 0 0 0-.479.361l.779-.71-.3.349a35.482 35.482 0 0 1 12.646-5.917 49.086 49.086 0 0 1 15.161-1.248 79.064 79.064 0 0 1 15.714 2.7c2.611.678 5.2 1.51 7.78 2.414a56.28 56.28 0 0 1 2.2.809l4.984 8.629a4.263 4.263 0 0 0 7.375-4.276l-2.3-4.132-10.5-19.541-2.268-4.055c-3.694-6.57-7.578-13.047-11.588-19.4-4.836-7.67-9.854-15.187-14.929-22.667l-15.459-22.219-15.671-21.982c-5.183-7.3-10.363-14.571-14.949-21.929a98.108 98.108 0 0 1-6.058-11.077 33.742 33.742 0 0 1-3.214-10.719 18.154 18.154 0 0 1 1.734-9.642 37.119 37.119 0 0 1 6.163-8.923 28.123 28.123 0 0 1 7.368-4.749 20.563 20.563 0 0 1 8.214-1.684c5.666-.047 11.7 2.389 17.44 5.858a99.4 99.4 0 0 1 16.369 13.042 192.367 192.367 0 0 1 14.838 15.989c4.778 5.713 9.482 11.475 14.088 17.349l6.9 8.809 5.385 7.049 1.416 1.862q2.666 3.513 5.295 7.06l21.221 29.142.024.037a3.59 3.59 0 0 0 6.1-3.758c-3.567-6.767-7.384-13.272-11.292-19.776q-3.761-6.174-7.662-12.251c1.834-1.313 3.687-2.556 5.577-3.744a79.134 79.134 0 0 1 15.672-7.7 54.3 54.3 0 0 1 16.464-3.2c.662-.02 1.337-.022 1.993-.012 1.07.1 2.134.233 3.2.365a55.574 55.574 0 0 1 8.641 1.8 51.426 51.426 0 0 1 16.347 8.54 53.522 53.522 0 0 1 10.632 12.322c3.212 5.592 4.851 9.935 7.695 16.065l.013.019a1.595 1.595 0 0 0 3.015-.388 46.2 46.2 0 0 0-1.257-21.255c-.135-.447-.252-.906-.405-1.341l-.493-1.31c-.34-.885-.67-1.771-1.077-2.628s-.889-1.675-1.335-2.517a22.67 22.67 0 0 0-1.618-2.361c-.551-.719-1.131-1.424-1.738-2.1l-.33.353c-.026.033-.062.068-.088.1a7.041 7.041 0 0 0 .22-.672c.069.072.129.146.2.218.054-.057.106-.124.169-.182a26.611 26.611 0 0 1 2.775-2.434 41.947 41.947 0 0 1 6.723-4.267 38.784 38.784 0 0 1 14.978-4.228 33.309 33.309 0 0 1 14.9 2.533 47.349 47.349 0 0 1 13.393 8.7 82.725 82.725 0 0 1 11.272 12.767 152 152 0 0 1 17 31.057 247.424 247.424 0 0 1 11.2 34.427 342.079 342.079 0 0 1 9.864 72.579l.129 9.545a44.809 44.809 0 0 0-4.826 1.234 31.74 31.74 0 0 0-4.768 1.872l-.086.041a.687.687 0 0 0-.358.779.673.673 0 0 0 .826.494 42.309 42.309 0 0 1 9.2-1.225h.292a37.78 37.78 0 0 1 9.5.954 30.246 30.246 0 0 1 5.393 1.84 25.253 25.253 0 0 1 10.105 8.245c3.754 5.082 5.679 11.355 6.581 17.672a63.09 63.09 0 0 1 .498 4.762zm-240.8-78.67l1.018 1.074-.607-.268-.129-.226z" fill="#fff"/><g clip-path="url(#C)"><g class="F" opacity=".2" fill="none" stroke-miterlimit="10" stroke="#f8fcff"><path d="M156.362 111.755l-1.242 386.848" stroke-width="7.223"/><g stroke-width="2.064"><path d="M188.259 111.858l-1.242 386.848m33.956-386.743l-1.242 386.848m33.957-386.743l-1.242 386.848m33.956-386.743l-1.242 386.848m63.576-386.648l-1.243 386.848m32.321-386.748l-1.242 386.848m32.321-386.748l-1.242 386.848m32.321-386.748l-1.243 386.847"/></g><g stroke-width="7.223"><path d="M316.663 112.27l-1.242 386.848m160.725-386.336l-1.242 386.848"/><path d="M120.7 453.61l386.848 1.242M121.215 293.309l386.848 1.242M121.727 133.826l386.848 1.243"/></g><g stroke-width="2.064"><path d="M121.699 164.739l386.848 1.242m-386.956 32.29l386.848 1.243m-386.955 32.29l386.848 1.242m-386.943 28.201l386.848 1.242m-387.055 63.369L508.03 327.1m-386.953 31.382l386.848 1.242M120.977 389.56l386.848 1.243m-386.948 29.836l386.848 1.242"/></g></g></g></g></svg>