<svg xmlns="http://www.w3.org/2000/svg" xmlns:xlink="http://www.w3.org/1999/xlink" viewBox="0 0 500 500" xmlns:v="https://vecta.io/nano"><style>.B{isolation:isolate}.J{mix-blend-mode:lighten}</style><defs><radialGradient id="A" cx="176.213" cy="306.573" r=".644" gradientTransform="matrix(0.993, -0.121, 0.121, 0.993, -28.673, 34.122)" gradientUnits="userSpaceOnUse"><stop offset="0" stop-color="#54b7ea"/><stop offset=".783" stop-color="#3376e0"/></radialGradient><radialGradient id="B" cx="176.131" cy="306.557" r=".734" gradientTransform="matrix(0.993, -0.121, 0.121, 0.993, -28.673, 34.122)" gradientUnits="userSpaceOnUse"><stop offset="0" stop-color="#4db0d7"/><stop offset="1" stop-color="#1a66cd"/></radialGradient><radialGradient id="C" cx="353.05" cy="208.76" r=".514" xlink:href="#A"/><radialGradient id="D" cx="352.358" cy="209.557" r="1.88" xlink:href="#B"/><radialGradient id="E" cx="182.7" cy="317.458" r=".571" gradientUnits="userSpaceOnUse"><stop offset="0" stop-color="#54b7ea"/><stop offset=".923" stop-color="#3376e0"/></radialGradient><radialGradient id="F" cx="182.636" cy="317.443" r=".747" gradientTransform="matrix(1, 0, 0, 1, 0, 0)" xlink:href="#B"/><radialGradient id="G" cx="346.372" cy="198.906" r=".452" xlink:href="#E"/><radialGradient id="H" cx="345.867" cy="199.885" r="1.883" gradientTransform="matrix(1, 0, 0, 1, 0, 0)" xlink:href="#B"/><radialGradient id="I" cx="162.44" cy="143.464" r="415.234" gradientUnits="userSpaceOnUse"><stop offset="0" stop-color="#54b7ea"/><stop offset="1" stop-color="#3376e0"/></radialGradient><radialGradient id="J" cx="327.353" cy="332.403" r="151.629" gradientTransform="matrix(1, 0, 0, 1, 0, 0)" xlink:href="#B"/><clipPath id="K"><path d="M482.068 395.489l.1 2.376q-.021 1.182-.073 2.366a36.454 36.454 0 0 1-1.942 9.245 52.97 52.97 0 0 1-9.757 16.345 98.913 98.913 0 0 1-13.967 13.315 193.934 193.934 0 0 1-32.911 20.528 282.934 282.934 0 0 1-35.807 15.22l-4.607 1.46-4.67 1.186-9.509 1.738a75.024 75.024 0 0 1-19.2.414 38.47 38.47 0 0 1-9.209-2.228 21.975 21.975 0 0 1-7.819-4.947 18.3 18.3 0 0 1-4.584-7.912 27.938 27.938 0 0 1-.881-9.342l.144-1.791a52.045 52.045 0 0 1 1.4-7.657l.625-2.3a13.584 13.584 0 0 1 .955-2.081l.83-1.452 1.7-2.605A62.433 62.433 0 0 1 346.5 423.78a.676.676 0 0 0-.695-1.154l-.1.053a61.737 61.737 0 0 0-8.742 5.129 56.105 56.105 0 0 0-7.857 6.845l-2.444 2.837q-2.6-1.45-5.186-2.942l-7.553-4.425a315.427 315.427 0 0 0-31.991-16.176c-10.893-4.8-21.952-9.061-32.923-13.179-10.974-4.139-21.872-8.155-32.28-12.775a158.069 158.069 0 0 1-15.092-7.574c-2.433-1.365-4.774-2.872-6.971-4.366a66.635 66.635 0 0 1-6.213-4.992 53.761 53.761 0 0 1-5.384-5.719 47.327 47.327 0 0 1-4.309-6.4 37.728 37.728 0 0 1-4.548-14.364 34.486 34.486 0 0 1 1.761-14.844 38.423 38.423 0 0 1 7.47-12.721 22.97 22.97 0 0 0-.479.361l.779-.71-.3.349a35.481 35.481 0 0 1 12.645-5.919 49.055 49.055 0 0 1 15.161-1.25 79 79 0 0 1 15.714 2.7c2.611.678 5.2 1.509 7.78 2.413.737.252 1.475.525 2.2.808l4.985 8.629a4.263 4.263 0 0 0 7.375-4.277l-2.3-4.132-10.5-19.54-2.269-4.054c-3.695-6.57-7.58-13.046-11.591-19.4-4.837-7.67-9.857-15.186-14.933-22.665l-15.462-22.217c-5.193-7.374-1.207-13.761-.5-22.7.63-8.035 12.256-21.965 24.731-20.892 7.42.638 17.478-.763 22.085 5.111l6.9 8.807 5.386 7.048 1.417 1.862q2.665 3.512 5.3 7.059l21.225 29.138.025.038a3.59 3.59 0 0 0 6.1-3.759c-3.569-6.767-7.387-13.271-11.3-19.775q-3.762-6.172-7.664-12.25c1.834-1.312 3.687-2.556 5.576-3.744a79.135 79.135 0 0 1 15.671-7.7 54.227 54.227 0 0 1 16.463-3.2 42.81 42.81 0 0 1 1.994-.012c1.07.1 2.134.233 3.2.364a55.584 55.584 0 0 1 8.642 1.794 51.439 51.439 0 0 1 16.348 8.539 53.508 53.508 0 0 1 10.634 12.319c3.213 5.592 4.853 9.935 7.7 16.065l.012.018a1.595 1.595 0 0 0 3.015-.389 46.18 46.18 0 0 0-1.26-21.254c-.135-.447-.252-.906-.4-1.341l-.493-1.31c-.34-.885-.67-1.771-1.077-2.628s-.89-1.674-1.336-2.517a22.776 22.776 0 0 0-1.618-2.361c-.552-.718-1.132-1.423-1.739-2.1l-.329.353c-.026.033-.063.068-.089.1a7.041 7.041 0 0 0 .22-.672c.07.073.129.146.2.218.054-.057.106-.124.169-.182a26.614 26.614 0 0 1 2.775-2.435 42.013 42.013 0 0 1 6.722-4.268 38.786 38.786 0 0 1 14.977-4.229 33.306 33.306 0 0 1 14.9 2.529 47.363 47.363 0 0 1 13.4 8.7 82.723 82.723 0 0 1 11.273 12.766 151.977 151.977 0 0 1 17.007 31.055 247.4 247.4 0 0 1 11.2 34.424 342.01 342.01 0 0 1 9.876 72.578l.13 9.545a44.7 44.7 0 0 0-4.826 1.235 31.68 31.68 0 0 0-4.768 1.873l-.085.04a.688.688 0 0 0-.358.78.672.672 0 0 0 .826.493 42.3 42.3 0 0 1 9.2-1.226h.291a37.841 37.841 0 0 1 9.507.952 30.349 30.349 0 0 1 5.393 1.839 25.259 25.259 0 0 1 10.105 8.244c3.755 5.082 5.681 11.354 6.585 17.671a76.23 76.23 0 0 1 .482 4.767z" fill="none"/></clipPath></defs><g class="B"><g stroke-miterlimit="10"><path d="M183.742,316.661c-.1.113-.2.227-.3.349-.166.121-.323.241-.479.361Z" fill="url(#A)" stroke="url(#B)"/><path d="M347.077,198.122c.07.072.129.145.2.217-.115.125-.222.239-.329.353-.027.033-.063.068-.089.1A7.028,7.028,0,0,0,347.077,198.122Z" fill="url(#C)" stroke="url(#D)"/><path d="M182.99,317.07c-.09.12-.2.23-.3.35-.16.13-.32.25-.47.36Z" fill="url(#E)" stroke="url(#F)"/><path d="M346.33,198.54c.07.07.13.14.2.21l-.33.36a.9.9,0,0,0-.09.1C346.2,198.96,346.27,198.74,346.33,198.54Z" fill="url(#G)" stroke="url(#H)"/><path d="M481.42,398.28c-.01.79-.04,1.58-.07,2.37a36.667,36.667,0,0,1-1.94,9.24,53.017,53.017,0,0,1-9.76,16.35,98.893,98.893,0,0,1-13.97,13.31,193.763,193.763,0,0,1-32.91,20.53,283,283,0,0,1-35.8,15.22q-2.3.78-4.61,1.46c-1.53.44-3.09.82-4.67,1.19-3.15.71-6.32,1.3-9.51,1.73a75.327,75.327,0,0,1-19.2.42,38.732,38.732,0,0,1-9.21-2.23,21.943,21.943,0,0,1-7.82-4.95,18.179,18.179,0,0,1-4.58-7.91,28.1,28.1,0,0,1-.89-9.34c.04-.6.09-1.2.15-1.79a51.787,51.787,0,0,1,1.4-7.66c.18-.79.42-1.53.62-2.3a13.621,13.621,0,0,1,.96-2.08c.26-.49.53-.98.83-1.46.53-.88,1.1-1.75,1.69-2.6a62.745,62.745,0,0,1,13.63-13.59.706.706,0,0,0,.21-.83.7.7,0,0,0-.91-.32l-.1.05a62.888,62.888,0,0,0-8.75,5.13,56.66,56.66,0,0,0-7.85,6.85c-.83.9-1.66,1.83-2.45,2.84q-2.6-1.455-5.18-2.95l-7.56-4.42a315.436,315.436,0,0,0-31.99-16.18c-10.89-4.8-21.95-9.06-32.92-13.18-10.97-4.14-21.87-8.15-32.28-12.77a157.487,157.487,0,0,1-15.09-7.58c-2.43-1.36-4.78-2.87-6.97-4.36a67.1,67.1,0,0,1-6.21-4.99,52.84,52.84,0,0,1-5.39-5.72,46.96,46.96,0,0,1-4.31-6.41,37.776,37.776,0,0,1-4.55-14.36,34.507,34.507,0,0,1,1.76-14.84,38.617,38.617,0,0,1,7.47-12.73,35.667,35.667,0,0,1,12.65-5.92,49.177,49.177,0,0,1,15.16-1.25,78.941,78.941,0,0,1,15.71,2.71c2.62.67,5.21,1.51,7.79,2.41.73.25,1.47.52,2.2.81,1.63,2.88,3.28,5.76,4.98,8.63a4.266,4.266,0,0,0,7.38-4.28c-.77-1.37-1.55-2.74-2.3-4.13-3.51-6.42-6.9-12.99-10.5-19.54-.75-1.36-1.5-2.71-2.27-4.06-3.69-6.57-7.58-13.04-11.59-19.39-4.84-7.67-9.86-15.19-14.93-22.67-5.09-7.45-10.29-14.82-15.46-22.21q-5.085-7.215-10.21-14.35l5.71-13.5,46.28-16.32c1.53,1.88,3.03,3.78,4.53,5.69,2.34,2.9,4.59,5.87,6.9,8.81l5.38,7.04,1.42,1.87q2.67,3.51,5.3,7.05c7.19,9.63,14.27,19.38,21.22,29.14l.03.04a3.586,3.586,0,0,0,6.09-3.76c-3.56-6.76-7.38-13.27-11.29-19.77-2.51-4.12-5.05-8.2-7.66-12.25,1.83-1.32,3.68-2.56,5.57-3.75a79.318,79.318,0,0,1,15.67-7.7,54.225,54.225,0,0,1,16.47-3.2c.66-.02,1.33-.02,1.99-.01,1.07.1,2.13.23,3.2.36a55.869,55.869,0,0,1,8.64,1.8,51.452,51.452,0,0,1,16.35,8.53,53.443,53.443,0,0,1,10.63,12.32c3.21,5.6,4.85,9.94,7.7,16.07l.01.02a1.591,1.591,0,0,0,1.16.89,1.611,1.611,0,0,0,1.86-1.28,46.3,46.3,0,0,0-1.26-21.26c-.14-.44-.26-.9-.41-1.34l-.49-1.31c-.34-.88-.67-1.77-1.08-2.63s-.89-1.67-1.34-2.51a22.312,22.312,0,0,0-1.61-2.36c-.56-.72-1.13-1.43-1.74-2.11.05-.05.1-.12.17-.18a26.387,26.387,0,0,1,2.77-2.43,42.287,42.287,0,0,1,6.72-4.27,38.8,38.8,0,0,1,14.98-4.23,33.26,33.26,0,0,1,14.9,2.53,47.275,47.275,0,0,1,13.39,8.7,82.657,82.657,0,0,1,11.28,12.76,152.174,152.174,0,0,1,17,31.06,247.606,247.606,0,0,1,11.21,34.42,342.484,342.484,0,0,1,9.87,72.58c.09,3.18.14,6.37.13,9.54a45.38,45.38,0,0,0-4.82,1.24,31.463,31.463,0,0,0-4.77,1.87l-.09.04a.711.711,0,0,0-.36.78.69.69,0,0,0,.83.5,42.277,42.277,0,0,1,9.2-1.23,2.81,2.81,0,0,0,.29-.01,37.841,37.841,0,0,1,9.51.96,30.058,30.058,0,0,1,5.39,1.84,24.137,24.137,0,0,1,3.31,1.8,25.267,25.267,0,0,1,6.8,6.44c3.75,5.08,5.68,11.35,6.58,17.67.23,1.58.39,3.18.5,4.77C481.39,396.71,481.39,397.49,481.42,398.28Z" fill="url(#I)" stroke="url(#J)"/></g><path d="M309.031 222.822l-.607-.268-.129-.227-.282-.58z" fill="#fff"/><g clip-path="url(#K)"><g class="J" opacity=".2" fill="none" stroke-miterlimit="10" stroke="#f8fcff"><path d="M154.481 112.669l2.016 386.844" stroke-width="7.223"/><g stroke-width="2.064"><path d="M186.378 112.503l2.015 386.844m30.699-387.015l2.015 386.845m30.699-387.015l2.015 386.844m30.699-387.015l2.015 386.845m60.318-387.169l2.015 386.844m29.063-387.006l2.016 386.844m29.063-387.006l2.015 386.844m29.063-387.006l2.015 386.844"/></g><g stroke-width="7.223"><path d="M314.781 111.834l2.015 386.844m157.466-387.675l2.015 386.844"/><path d="M121.699 454.811l386.845-2.015m-387.68-158.284l386.845-2.015M120.033 135.031l386.845-2.016"/></g><g stroke-width="2.064"><path d="M120.266 165.942l386.844-2.015m-386.67 35.547l386.845-2.015m-386.67 35.547l386.845-2.015m-386.692 31.458l386.845-2.015m-386.508 66.625l386.845-2.015m-386.675 34.639l386.845-2.015m-386.683 33.094l386.844-2.015M121.599 421.84l386.844-2.015"/></g></g></g><path d="M491.958 394.775l-1.008-5.438a56.588 56.588 0 0 0-3.559-10.808 56.024 56.024 0 0 0-7.695-11.511 31.793 31.793 0 0 0-9.489-7.241 37.388 37.388 0 0 0-9.543-2.409l.059-9.568a373.572 373.572 0 0 0-2.188-37.562c-1.406-12.734-2.619-23.718-5.556-36.284a237.955 237.955 0 0 0-11.819-37.069c-5.012-12.071-9.388-28.814-28.889-48.552-4.922-4.989-11.453-8.552-18.377-11.211-6.887-2.684-15.442-4.509-22.886-3.84a47.167 47.167 0 0 0-19.7 6.248 56.809 56.809 0 0 0-8.965 6.1 41.464 41.464 0 0 0-3.592 3.331c-1.138-.576-3.8-2.578-5.008-3.136a71.764 71.764 0 0 0-9.778-3.669 59.756 59.756 0 0 0-20.984-2.3 67.434 67.434 0 0 0-20.219 4.7 90.806 90.806 0 0 0-17.74 9.565q-2.805 1.9-5.459 3.962c-1.776-2.654-18.32-17.183-28.943-18.8-13.423-2.046-24.079.5-33.127 6.253-15.885 10.1-14.938 19.35-15.149 27.223-.329 12.3 7.907 26.975 12.781 36.424 3.717 4.854 6.356 9.916 14.893 22.462q2.261 3.291 4.466 6.617 7.393 11.14 14.076 22.659l2.755 4.821-1.826-.764a75.464 75.464 0 0 0-17.263-4.659 54.792 54.792 0 0 0-18.485.428 45.328 45.328 0 0 0-17.435 7.694 5.193 5.193 0 0 0-.727.643l-.052.067a49.848 49.848 0 0 0-10.3 16.765 45.917 45.917 0 0 0-2.637 19.706 49.532 49.532 0 0 0 5.666 18.972 58.873 58.873 0 0 0 5.348 8.222 64.435 64.435 0 0 0 6.527 7.16 77.521 77.521 0 0 0 7.367 6.111c2.612 1.836 5.178 3.537 7.826 5.087a172.666 172.666 0 0 0 16.142 8.422c10.923 5.041 21.993 9.148 32.877 13.377 10.91 4.2 21.666 8.442 32.156 13.163a309.614 309.614 0 0 1 30.535 15.719l7.572 4.494q3.126 1.839 6.316 3.62c-.436 1.544-.813 3.152-1.115 4.8a34.68 34.68 0 0 0 .038 12.175 27.109 27.109 0 0 0 6.017 12.29 32.171 32.171 0 0 0 10.816 7.956 47.416 47.416 0 0 0 11.622 3.61 82.579 82.579 0 0 0 22.27.782c3.594-.349 7.146-.874 10.682-1.538l2.636-.524 1.392-.312 1.418-.354c1.816-.475 3.5-.982 5.165-1.509 6.632-2.111 13-4.371 19.28-7.023q4.7-1.95 9.344-4.075l4.622-2.157 4.565-2.3a183.622 183.622 0 0 0 34.779-22.63 102.661 102.661 0 0 0 15.159-15.6 62.073 62.073 0 0 0 10.888-20.492 44.745 44.745 0 0 0 1.845-12.175c0-1.038-.032-2.071-.087-3.1l-.129-1.546c-.055-.519-.098-1.038-.171-1.472zm-9.887.716c.069.807.063 1.584.1 2.375q-.021 1.182-.073 2.367a36.456 36.456 0 0 1-1.942 9.244 52.974 52.974 0 0 1-9.757 16.346 98.963 98.963 0 0 1-13.967 13.314 193.974 193.974 0 0 1-32.911 20.528 282.934 282.934 0 0 1-35.807 15.22c-1.528.52-3.07 1.011-4.607 1.461s-3.093.821-4.67 1.185a107.26 107.26 0 0 1-9.51 1.738 75.015 75.015 0 0 1-19.2.414 38.47 38.47 0 0 1-9.209-2.228 21.949 21.949 0 0 1-7.818-4.947 18.287 18.287 0 0 1-4.585-7.912 27.936 27.936 0 0 1-.881-9.342 49.7 49.7 0 0 1 .144-1.791 51.961 51.961 0 0 1 1.4-7.657c.186-.788.417-1.532.625-2.3a13.549 13.549 0 0 1 .955-2.082 31.17 31.17 0 0 1 .83-1.451c.527-.881 1.1-1.757 1.7-2.605a62.416 62.416 0 0 1 13.612-13.587.676.676 0 0 0-.695-1.154l-.1.053a61.833 61.833 0 0 0-8.742 5.129 56.236 56.236 0 0 0-7.857 6.845c-.826.907-1.66 1.835-2.444 2.838q-2.6-1.451-5.185-2.942l-7.554-4.426a315.508 315.508 0 0 0-31.99-16.175c-10.894-4.8-21.953-9.062-32.924-13.18-10.974-4.138-21.872-8.155-32.28-12.775a158.187 158.187 0 0 1-15.092-7.574c-2.433-1.364-4.774-2.871-6.971-4.366a66.473 66.473 0 0 1-6.213-4.992 53.665 53.665 0 0 1-5.384-5.719 47.265 47.265 0 0 1-4.309-6.4 37.728 37.728 0 0 1-4.548-14.364 34.488 34.488 0 0 1 1.761-14.844 38.44 38.44 0 0 1 7.47-12.721 22.97 22.97 0 0 0-.479.361l.779-.71-.3.349a35.489 35.489 0 0 1 12.645-5.919 49.117 49.117 0 0 1 15.161-1.25 79.069 79.069 0 0 1 15.714 2.7c2.612.678 5.2 1.51 7.78 2.413.737.253 1.475.525 2.205.808l4.984 8.629a4.263 4.263 0 0 0 7.376-4.277l-2.3-4.132-10.5-19.539-2.269-4.055c-3.695-6.57-7.58-13.046-11.591-19.4-4.837-7.669-9.857-15.185-14.933-22.664l-3.478-5.045c-6.665-14.378-13.606-37.378 1.747-46.691 21.525-13.05 41.62 5.4 48.315 11.451q1.641 2.172 3.264 4.366l21.225 29.139.025.037a3.59 3.59 0 0 0 6.1-3.758c-3.568-6.767-7.387-13.272-11.295-19.775q-3.762-6.174-7.664-12.25c1.834-1.313 3.687-2.557 5.576-3.745a79.19 79.19 0 0 1 15.671-7.7 54.257 54.257 0 0 1 16.463-3.2 44.24 44.24 0 0 1 1.994-.012c1.07.1 2.134.233 3.2.365a55.353 55.353 0 0 1 8.642 1.79 51.407 51.407 0 0 1 16.348 8.538 53.491 53.491 0 0 1 10.635 12.32c3.212 5.591 4.852 9.934 7.7 16.064l.012.019a1.595 1.595 0 0 0 3.015-.389 46.184 46.184 0 0 0-1.26-21.255c-.135-.447-.251-.906-.4-1.34l-.493-1.31c-.34-.885-.67-1.772-1.077-2.629s-.89-1.674-1.336-2.516a22.67 22.67 0 0 0-1.618-2.361c-.552-.719-1.131-1.423-1.739-2.1l-.329.353c-.027.033-.063.068-.089.1a7.028 7.028 0 0 0 .22-.671c.07.072.129.145.2.217.054-.057.106-.123.169-.182a26.731 26.731 0 0 1 2.775-2.435 42.008 42.008 0 0 1 6.722-4.267 38.77 38.77 0 0 1 14.977-4.23 33.307 33.307 0 0 1 14.9 2.53 47.341 47.341 0 0 1 13.4 8.7 82.715 82.715 0 0 1 11.273 12.765 152 152 0 0 1 17.007 31.055 247.449 247.449 0 0 1 11.2 34.424 342.073 342.073 0 0 1 9.875 72.578l.13 9.545a44.933 44.933 0 0 0-4.826 1.235 31.627 31.627 0 0 0-4.767 1.873l-.086.041a.686.686 0 0 0-.358.779.672.672 0 0 0 .826.493 42.309 42.309 0 0 1 9.2-1.226h.291a37.829 37.829 0 0 1 9.506.953 30.329 30.329 0 0 1 5.394 1.838 25.259 25.259 0 0 1 10.105 8.244c3.755 5.082 5.681 11.355 6.585 17.672a76.65 76.65 0 0 1 .484 4.766zm-240.809-78.632l1.018 1.074-.607-.268-.129-.226z" stroke-miterlimit="10" fill="#fff" stroke="#f8fcff"/></g></svg>