<svg xmlns="http://www.w3.org/2000/svg" xmlns:xlink="http://www.w3.org/1999/xlink" viewBox="0 0 500 500" xmlns:v="https://vecta.io/nano"><style>.B{isolation:isolate}.I{mix-blend-mode:lighten}</style><defs><radialGradient id="A" cx="175.636" cy="306.503" r=".644" gradientTransform="matrix(0.993, -0.121, 0.121, 0.993, -28.673, 34.122)" gradientUnits="userSpaceOnUse"><stop offset="0" stop-color="#54b7ea"/><stop offset=".783" stop-color="#3376e0"/></radialGradient><radialGradient id="B" cx="175.554" cy="306.487" r=".734" gradientTransform="matrix(0.993, -0.121, 0.121, 0.993, -28.673, 34.122)" gradientUnits="userSpaceOnUse"><stop offset="0" stop-color="#4db0d7"/><stop offset="1" stop-color="#1a66cd"/></radialGradient><radialGradient id="C" cx="352.473" cy="208.689" r=".514" xlink:href="#A"/><radialGradient id="D" cx="351.781" cy="209.486" r="1.88" xlink:href="#B"/><radialGradient id="E" cx="160.208" cy="142.348" r="419.151" gradientUnits="userSpaceOnUse"><stop offset="0" stop-color="#54b7ea"/><stop offset="1" stop-color="#3376e0"/></radialGradient><radialGradient id="F" cx="312.855" cy="335.44" r="152.711" xlink:href="#B"/><clipPath id="G"><path d="M481.487 395.49l.1 2.375q-.021 1.182-.073 2.367a36.456 36.456 0 0 1-1.942 9.244 52.958 52.958 0 0 1-9.757 16.345 98.913 98.913 0 0 1-13.967 13.315 193.974 193.974 0 0 1-32.911 20.528 282.934 282.934 0 0 1-35.807 15.22l-4.607 1.46-4.67 1.186-9.509 1.738a75.024 75.024 0 0 1-19.2.414 38.459 38.459 0 0 1-9.209-2.228 21.962 21.962 0 0 1-7.819-4.947 18.3 18.3 0 0 1-4.584-7.912 27.936 27.936 0 0 1-.881-9.342l.144-1.791a51.807 51.807 0 0 1 1.4-7.657l.625-2.3a13.584 13.584 0 0 1 .955-2.081l.83-1.451 1.7-2.606a62.433 62.433 0 0 1 13.621-13.584.691.691 0 0 0 .211-.832.683.683 0 0 0-.906-.322l-.1.053a61.783 61.783 0 0 0-8.741 5.129 56.17 56.17 0 0 0-7.857 6.845l-2.444 2.838q-2.6-1.45-5.186-2.942l-7.553-4.426a315.419 315.419 0 0 0-31.991-16.175c-10.893-4.8-21.952-9.062-32.924-13.18-10.973-4.138-21.872-8.155-32.28-12.775a158.17 158.17 0 0 1-15.091-7.574c-2.433-1.364-4.774-2.871-6.971-4.366a66.473 66.473 0 0 1-6.213-4.992 53.665 53.665 0 0 1-5.384-5.719 47.327 47.327 0 0 1-4.309-6.4 37.728 37.728 0 0 1-4.548-14.364 34.488 34.488 0 0 1 1.761-14.844 38.423 38.423 0 0 1 7.47-12.721 22.97 22.97 0 0 0-.479.361l.779-.71-.3.349a35.481 35.481 0 0 1 12.63-5.926 49.113 49.113 0 0 1 15.16-1.25 79.066 79.066 0 0 1 15.715 2.7c2.611.678 5.2 1.509 7.78 2.413a58.98 58.98 0 0 1 2.205.808l4.984 8.629a4.263 4.263 0 0 0 7.376-4.277l-2.3-4.132-10.5-19.539-2.269-4.055c-3.695-6.57-7.581-13.046-11.591-19.4-4.837-7.669-9.857-15.185-14.933-22.664l-15.462-22.217c-5.193-7.374-1.207-13.761-.505-22.7.63-8.035 12.256-21.965 24.731-20.892 7.42.638 17.478-.763 22.085 5.111l6.9 8.807 5.386 7.048 1.417 1.862q2.666 3.512 5.3 7.059l21.225 29.139.025.037a3.59 3.59 0 0 0 6.1-3.759c-3.568-6.766-7.386-13.271-11.294-19.774q-3.764-6.174-7.664-12.25a111.43 111.43 0 0 1 5.576-3.745 79.135 79.135 0 0 1 15.671-7.7 54.257 54.257 0 0 1 16.463-3.2c.663-.02 1.337-.022 1.993-.012 1.071.1 2.134.233 3.2.365a55.353 55.353 0 0 1 8.642 1.794 51.417 51.417 0 0 1 16.348 8.538 53.5 53.5 0 0 1 10.634 12.32c3.213 5.591 4.853 9.934 7.7 16.064l.012.018a1.594 1.594 0 0 0 3.015-.388 46.184 46.184 0 0 0-1.26-21.255c-.135-.447-.252-.906-.4-1.34l-.493-1.31c-.34-.886-.67-1.772-1.077-2.629s-.89-1.674-1.336-2.516a22.421 22.421 0 0 0-1.619-2.361 36.88 36.88 0 0 0-1.738-2.105l-.329.353c-.027.033-.063.068-.089.1a7.12 7.12 0 0 0 .22-.671c.07.072.129.145.2.217.054-.057.106-.124.169-.182a26.614 26.614 0 0 1 2.775-2.435 42.008 42.008 0 0 1 6.722-4.267 38.77 38.77 0 0 1 14.977-4.23 33.307 33.307 0 0 1 14.9 2.53 47.334 47.334 0 0 1 13.4 8.7 82.767 82.767 0 0 1 11.253 12.77 152 152 0 0 1 17.007 31.055 247.446 247.446 0 0 1 11.2 34.424 342.074 342.074 0 0 1 9.876 72.578l.13 9.545a44.933 44.933 0 0 0-4.826 1.235 31.68 31.68 0 0 0-4.768 1.873l-.085.041a.686.686 0 0 0-.358.779.672.672 0 0 0 .826.493 42.3 42.3 0 0 1 9.2-1.226h.291a37.783 37.783 0 0 1 9.506.953 30.212 30.212 0 0 1 5.393 1.838 25.249 25.249 0 0 1 10.106 8.244c3.755 5.082 5.681 11.354 6.585 17.671.235 1.58.389 3.172.504 4.77z" fill="none"/></clipPath></defs><g class="B"><path d="M177.798 146.542L139.844 27.1 97.426 12.589l80.372 133.953z" fill="#fffdfd"/><path d="M177.8 146.542q-5.423-16.435-11.286-31.858c-3.89-10.278-7.942-20.18-11.842-29.714l-11.179-28.015-5.121-13.864-4.879-13.972 4.195 4.289-10.69-3.377-10.658-3.473-10.625-3.567-10.588-3.682 8.389-10.374c6.335 10.7 12.439 21.383 18.337 32.219l8.725 16.43 8.622 16.9 18.129 35.327a1009.4 1009.4 0 0 0 20.471 36.731zm0 0c-6.117-9.873-12.72-19.989-19.718-30.249l-22.057-31.65-11.471-16.584L113.187 51c-7.5-11.49-14.789-23.131-21.849-34.757a7.089 7.089 0 0 1 8.287-10.408l.1.034 10.623 3.574 10.584 3.687 10.551 3.783L142 20.793l.29.109a6.489 6.489 0 0 1 3.905 4.18l4.61 15.888 4.367 16c2.82 10.672 5.4 21.355 7.8 31.706l7.135 30.007c2.435 9.629 4.98 18.909 7.693 27.859z" fill="#fff"/><g stroke-miterlimit="10"><path d="M183.161,316.661c-.1.113-.2.227-.3.349-.166.122-.323.241-.479.361Z" fill="url(#A)" stroke="url(#B)"/><path d="M346.5,198.122c.07.072.129.145.2.217l-.329.353c-.027.034-.063.068-.089.1C346.367,198.551,346.441,198.33,346.5,198.122Z" fill="url(#C)" stroke="url(#D)"/><path d="M481.49,395.491c.069.808.063,1.584.1,2.376q-.021,1.18-.073,2.366a36.456,36.456,0,0,1-1.942,9.244,52.974,52.974,0,0,1-9.757,16.346,98.963,98.963,0,0,1-13.967,13.314,193.847,193.847,0,0,1-32.911,20.528,283.085,283.085,0,0,1-35.807,15.221c-1.528.519-3.07,1.01-4.607,1.46s-3.093.821-4.67,1.186c-3.146.717-6.318,1.306-9.51,1.737a75.061,75.061,0,0,1-19.2.415,38.46,38.46,0,0,1-9.209-2.229,21.962,21.962,0,0,1-7.819-4.947,18.29,18.29,0,0,1-4.584-7.912,27.933,27.933,0,0,1-.881-9.342c.038-.6.085-1.2.144-1.791a51.794,51.794,0,0,1,1.4-7.656c.186-.789.417-1.532.625-2.3a13.549,13.549,0,0,1,.955-2.082c.263-.485.536-.972.83-1.451.527-.881,1.1-1.757,1.7-2.605a62.416,62.416,0,0,1,13.621-13.585.677.677,0,0,0-.7-1.154l-.1.053a61.79,61.79,0,0,0-8.741,5.13,56.162,56.162,0,0,0-7.857,6.844c-.826.907-1.66,1.835-2.444,2.838q-2.595-1.451-5.186-2.942l-7.553-4.426a315.625,315.625,0,0,0-31.991-16.175c-10.893-4.8-21.952-9.062-32.924-13.18-10.973-4.138-21.872-8.154-32.28-12.775a158.17,158.17,0,0,1-15.091-7.574c-2.433-1.364-4.774-2.871-6.971-4.365a66.483,66.483,0,0,1-6.213-4.993,53.665,53.665,0,0,1-5.384-5.719,47.265,47.265,0,0,1-4.309-6.4,37.728,37.728,0,0,1-4.548-14.364,34.482,34.482,0,0,1,1.761-14.843,38.428,38.428,0,0,1,7.47-12.722,35.506,35.506,0,0,1,12.645-5.919,49.113,49.113,0,0,1,15.16-1.25,79.066,79.066,0,0,1,15.715,2.7c2.611.678,5.2,1.51,7.78,2.413.737.253,1.475.525,2.205.809,1.632,2.883,3.284,5.763,4.984,8.628a4.263,4.263,0,0,0,7.376-4.277c-.772-1.366-1.545-2.743-2.3-4.131-3.516-6.421-6.9-12.989-10.5-19.54-.751-1.359-1.5-2.708-2.269-4.055-3.695-6.57-7.58-13.046-11.591-19.4-4.837-7.669-9.857-15.185-14.933-22.664-5.083-7.458-10.285-14.821-15.462-22.217q-4.644-6.6-9.343-13.133l5-11.693,36.633-13.9,9.774-5.094c1.435,1.768,2.842,3.551,4.25,5.343,2.339,2.9,4.6,5.875,6.9,8.807l5.386,7.049,1.416,1.861q2.667,3.513,5.3,7.059c7.192,9.628,14.279,19.38,21.225,29.139l.025.037a3.589,3.589,0,0,0,6.1-3.758c-3.568-6.767-7.386-13.272-11.294-19.775q-3.762-6.174-7.664-12.25c1.834-1.313,3.686-2.557,5.576-3.745a79.19,79.19,0,0,1,15.671-7.7,54.256,54.256,0,0,1,16.463-3.2c.663-.021,1.337-.023,1.993-.013,1.071.1,2.134.233,3.2.365a55.468,55.468,0,0,1,8.642,1.794,51.427,51.427,0,0,1,16.348,8.538,53.5,53.5,0,0,1,10.634,12.32c3.213,5.591,4.853,9.934,7.7,16.064l.012.019a1.595,1.595,0,0,0,3.015-.389,46.18,46.18,0,0,0-1.26-21.254c-.135-.447-.252-.907-.406-1.341l-.492-1.31c-.34-.885-.67-1.772-1.077-2.629s-.89-1.674-1.336-2.516a22.67,22.67,0,0,0-1.618-2.361c-.552-.718-1.131-1.423-1.739-2.1.054-.056.106-.123.169-.181a26.5,26.5,0,0,1,2.775-2.435,42.013,42.013,0,0,1,6.722-4.268,38.788,38.788,0,0,1,14.977-4.23,33.307,33.307,0,0,1,14.9,2.53,47.341,47.341,0,0,1,13.4,8.7A82.814,82.814,0,0,1,410.9,211.218a152,152,0,0,1,17.007,31.055,247.283,247.283,0,0,1,11.2,34.425,342.065,342.065,0,0,1,9.876,72.577c.087,3.183.135,6.371.13,9.545a44.933,44.933,0,0,0-4.826,1.235,31.787,31.787,0,0,0-4.768,1.873l-.085.041a.687.687,0,0,0-.358.779.672.672,0,0,0,.826.494,42.3,42.3,0,0,1,9.2-1.227l.291,0a37.829,37.829,0,0,1,9.506.953A30.332,30.332,0,0,1,464.3,364.8a25.259,25.259,0,0,1,10.1,8.244c3.755,5.081,5.681,11.354,6.585,17.671C481.221,392.3,481.375,393.893,481.49,395.491Z" fill="url(#E)" stroke="url(#F)"/></g><path d="M308.45 222.822l-.607-.268-.129-.226-.282-.58z" fill="#fff"/><g clip-path="url(#G)"><g class="I" opacity=".2" fill="none" stroke-miterlimit="10" stroke="#f8fcff"><path d="M154.82 111.904l.175 386.85" stroke-width="7.223"/><g stroke-width="2.064"><path d="M186.717 111.889l.175 386.85m32.539-386.864l.175 386.849m32.54-386.864l.175 386.85m32.54-386.865l.174 386.85m62.159-386.878l.175 386.85m30.904-386.864l.175 386.85m30.904-386.864l.175 386.85m30.904-386.864l.175 386.85"/></g><g stroke-width="7.223"><path d="M315.122 111.831l.174 386.85m159.309-386.922l.175 386.85"/><path d="M120.41 453.886l386.85-.174M120.338 293.585l386.85-.175M120.266 134.102l386.85-.175"/></g><g stroke-width="2.064"><path d="M120.351 165.014l386.85-.175m-386.835 33.708l386.85-.175m-386.834 33.707l386.849-.175m-386.836 29.618l386.85-.175m-386.821 64.786l386.85-.174m-386.835 32.799l386.85-.175m-386.836 31.253l386.85-.174m-386.836 31.253l386.85-.174"/></g></g></g><path d="M491.376 394.775l-1.007-5.438a46.664 46.664 0 0 0-11.254-22.318 31.78 31.78 0 0 0-9.489-7.242 37.388 37.388 0 0 0-9.543-2.409l.058-9.568a373.277 373.277 0 0 0-2.187-37.562c-1.406-12.734-2.619-23.718-5.556-36.284a237.955 237.955 0 0 0-11.819-37.069c-5.013-12.071-9.388-28.813-28.889-48.552-4.922-4.989-11.453-8.552-18.377-11.211-6.887-2.684-15.442-4.508-22.886-3.84a47.182 47.182 0 0 0-19.7 6.248 56.809 56.809 0 0 0-8.965 6.1 41.464 41.464 0 0 0-3.592 3.331c-1.139-.576-3.8-2.578-5.008-3.135a71.636 71.636 0 0 0-9.778-3.67 59.732 59.732 0 0 0-20.984-2.3 67.373 67.373 0 0 0-20.219 4.7 90.8 90.8 0 0 0-17.74 9.564q-2.805 1.9-5.459 3.962c-1.776-2.654-18.32-17.183-28.943-18.8-13.423-2.046-24.079.5-33.127 6.253-15.885 10.1-14.939 19.35-15.149 27.224-.33 12.3 7.907 26.975 12.781 36.423 3.717 4.854 6.356 9.916 14.893 22.463q2.261 3.289 4.466 6.616 7.394 11.14 14.076 22.659l2.755 4.821-1.826-.764a75.411 75.411 0 0 0-17.263-4.658 54.765 54.765 0 0 0-18.485.427 45.343 45.343 0 0 0-17.435 7.694 5.137 5.137 0 0 0-.727.643l-.052.067a49.858 49.858 0 0 0-10.3 16.765 45.917 45.917 0 0 0-2.637 19.706 49.527 49.527 0 0 0 5.666 18.972 58.873 58.873 0 0 0 5.348 8.222 64.435 64.435 0 0 0 6.527 7.16 77.521 77.521 0 0 0 7.367 6.111c2.612 1.836 5.178 3.537 7.826 5.087a172.677 172.677 0 0 0 16.142 8.423c10.923 5.041 21.993 9.147 32.877 13.377 10.91 4.2 21.666 8.441 32.156 13.162a309.614 309.614 0 0 1 30.535 15.719l7.572 4.494q3.126 1.839 6.316 3.62c-.436 1.544-.814 3.152-1.116 4.8a34.681 34.681 0 0 0 .039 12.175 27.117 27.117 0 0 0 6.017 12.291 32.181 32.181 0 0 0 10.816 7.955 47.4 47.4 0 0 0 11.624 3.605 82.538 82.538 0 0 0 22.27.782c3.594-.349 7.146-.874 10.682-1.538l2.636-.524 1.392-.312 1.417-.354c1.816-.474 3.5-.982 5.166-1.509 6.632-2.111 13-4.371 19.279-7.023q4.7-1.95 9.345-4.074l4.622-2.158 4.565-2.3a183.653 183.653 0 0 0 34.779-22.63 102.562 102.562 0 0 0 15.158-15.6 62.075 62.075 0 0 0 10.883-20.493 44.738 44.738 0 0 0 1.845-12.174c0-1.038-.032-2.072-.087-3.1l-.129-1.546c-.051-.513-.094-1.031-.168-1.466zm-9.886.716c.069.808.063 1.584.1 2.376q-.021 1.18-.073 2.366a36.456 36.456 0 0 1-1.942 9.244 52.974 52.974 0 0 1-9.757 16.346 98.963 98.963 0 0 1-13.967 13.314 193.847 193.847 0 0 1-32.911 20.528 283.085 283.085 0 0 1-35.807 15.221c-1.528.519-3.07 1.01-4.607 1.46s-3.093.821-4.67 1.186a107.62 107.62 0 0 1-9.51 1.737 75.061 75.061 0 0 1-19.2.415 38.46 38.46 0 0 1-9.209-2.229 21.962 21.962 0 0 1-7.819-4.947 18.29 18.29 0 0 1-4.584-7.912 27.933 27.933 0 0 1-.881-9.342 49.7 49.7 0 0 1 .144-1.791 51.794 51.794 0 0 1 1.4-7.656c.186-.789.417-1.532.625-2.3a13.549 13.549 0 0 1 .955-2.082 31.17 31.17 0 0 1 .83-1.451c.527-.881 1.1-1.757 1.7-2.605a62.416 62.416 0 0 1 13.621-13.585.677.677 0 0 0-.7-1.154l-.1.053a61.79 61.79 0 0 0-8.741 5.13 56.162 56.162 0 0 0-7.857 6.844c-.826.907-1.66 1.835-2.444 2.838q-2.595-1.451-5.186-2.942l-7.553-4.426a315.625 315.625 0 0 0-31.991-16.175c-10.893-4.8-21.952-9.062-32.924-13.18-10.973-4.138-21.872-8.154-32.28-12.775a158.17 158.17 0 0 1-15.091-7.574c-2.433-1.364-4.774-2.871-6.971-4.365a66.483 66.483 0 0 1-6.213-4.993 53.665 53.665 0 0 1-5.384-5.719 47.265 47.265 0 0 1-4.309-6.4 37.728 37.728 0 0 1-4.548-14.364 34.482 34.482 0 0 1 1.761-14.843 38.428 38.428 0 0 1 7.47-12.722l-.479.361.779-.71-.3.349a35.506 35.506 0 0 1 12.645-5.919 49.113 49.113 0 0 1 15.16-1.25 79.066 79.066 0 0 1 15.715 2.7c2.611.678 5.2 1.51 7.78 2.413.737.253 1.475.525 2.205.809l4.984 8.628a4.263 4.263 0 0 0 7.376-4.277l-2.3-4.131-10.5-19.54-2.269-4.055c-3.695-6.57-7.58-13.046-11.591-19.4-4.837-7.669-9.857-15.185-14.933-22.664l-3.478-5.045c-6.665-14.377-13.606-37.377 1.747-46.69 21.524-13.051 41.62 5.4 48.315 11.451q1.641 2.171 3.264 4.365l21.225 29.139.025.037a3.589 3.589 0 0 0 6.1-3.758c-3.568-6.767-7.386-13.272-11.294-19.775q-3.762-6.174-7.664-12.25a111.43 111.43 0 0 1 5.576-3.745 79.19 79.19 0 0 1 15.671-7.7 54.256 54.256 0 0 1 16.463-3.2 42.78 42.78 0 0 1 1.993-.013c1.071.1 2.134.233 3.2.365a55.468 55.468 0 0 1 8.642 1.794 51.427 51.427 0 0 1 16.348 8.538 53.5 53.5 0 0 1 10.634 12.32c3.213 5.591 4.853 9.934 7.7 16.064l.012.019a1.595 1.595 0 0 0 3.015-.389 46.18 46.18 0 0 0-1.26-21.254c-.135-.447-.252-.907-.406-1.341l-.492-1.31c-.34-.885-.67-1.772-1.077-2.629s-.89-1.674-1.336-2.516a22.67 22.67 0 0 0-1.618-2.361 35.78 35.78 0 0 0-1.739-2.1l-.329.353c-.027.034-.063.068-.089.1.091-.243.165-.464.22-.672.07.072.129.145.2.217.054-.056.106-.123.169-.181a26.5 26.5 0 0 1 2.775-2.435 42.013 42.013 0 0 1 6.722-4.268 38.788 38.788 0 0 1 14.977-4.23 33.307 33.307 0 0 1 14.9 2.53 47.341 47.341 0 0 1 13.4 8.7 82.814 82.814 0 0 1 11.25 12.757 152 152 0 0 1 17.007 31.055 247.283 247.283 0 0 1 11.2 34.425 342.065 342.065 0 0 1 9.876 72.577l.13 9.545a44.933 44.933 0 0 0-4.826 1.235 31.787 31.787 0 0 0-4.768 1.873l-.085.041a.687.687 0 0 0-.358.779.672.672 0 0 0 .826.494 42.3 42.3 0 0 1 9.2-1.227h.291a37.829 37.829 0 0 1 9.506.953 30.332 30.332 0 0 1 5.401 1.832 25.259 25.259 0 0 1 10.1 8.244c3.755 5.081 5.681 11.354 6.585 17.671a63.2 63.2 0 0 1 .505 4.776zm-240.809-78.632l1.018 1.074-.607-.268-.129-.226z" fill="#fff" stroke-miterlimit="10" stroke="#f8fcff"/><path d="M167.751 159.937l-116.093-144L9.24 21.519l158.511 138.418z" fill="#fffdfd"/><path d="M167.751 159.937q-16.318-19.881-32.715-37.983c-10.9-12.071-21.8-23.49-32.322-34.46L87.242 71.236 72.383 55.122l-14.4-16.292q-7.075-8.244-14.116-16.614l9.092 3.639-10.571 1.616L31.8 29l-10.594 1.471L10.592 31.8l5.465-18.083 18.521 16.639C40.7 35.9 46.686 41.591 52.662 47.29c5.983 5.669 11.863 11.567 17.793 17.444L88.308 82.9l37.706 38.109a1205.77 1205.77 0 0 0 41.737 38.928zm0 0c-11.758-10.022-24.323-20.149-37.518-30.277l-41.55-31.1-21.775-16.442-21.835-17.161L23.53 47.286 2.423 29.326A10.361 10.361 0 0 1 7.8 11.256l.093-.013 10.6-1.467L29.1 8.454l10.623-1.259 10.63-1.176.38-.042a9.713 9.713 0 0 1 8.713 3.682q7.484 9.618 14.907 19.386l14.628 19.708 14.163 19.885 13.552 19.742 25.724 37.541c8.448 11.929 16.861 23.271 25.331 34.016z" fill="#fff"/><path d="M163.286 180.03L40.496 98.542l16.744 30.139 106.046 51.349z" fill="#fffdfd"/><path d="M163.286 180.03q-17.167-11.22-33.849-21.024c-11.125-6.568-22.125-12.641-32.657-18.506l-15.577-8.736-15.088-8.824c-9.933-5.964-19.711-12.14-29.5-18.547l10.021-9.261 4.229 7.511 4.163 7.547 4.128 7.568 4.054 7.607-2.993-2.829c8.261 4.18 16.352 8.437 24.366 12.939 8.022 4.481 15.982 9.271 24.249 14.262l25.992 15.309a610.86 610.86 0 0 0 28.462 14.984zm0 0q-11.675-5.516-24.56-10.69c-8.584-3.458-17.63-6.835-27.031-10.365-9.406-3.568-19.121-7.336-28.774-11.413-9.66-4.056-19.243-8.357-28.657-12.735a6.468 6.468 0 0 1-2.881-2.635l-.112-.192-4.317-7.462-4.245-7.5-4.209-7.522-4.143-7.559-.039-.071a7.012 7.012 0 0 1 10.06-9.19c10.675 7.174 21.361 14.579 31.893 22.2l15.61 11.548 15.121 11.636 28.738 22.238c9.316 7.011 18.526 13.611 27.546 19.712z" fill="#fff"/></g></svg>