<?xml version="1.0" encoding="utf-8"?>
<svg viewBox="0 0 900 700" xmlns="http://www.w3.org/2000/svg">
  <path d="M 327.131 190.654 C 332.826 174.167 344.027 168.398 356.453 168.365 C 358.996 168.39 361.533 168.58 364.049 168.935 C 384.278 172.26 601.781 285.295 610.219 297.71 C 617.326 308.055 620.876 317.411 620.867 326.485 C 620.895 337.821 615.257 348.203 603.97 358.333 C 591.413 369.879 378.399 477.031 367.934 478.601 C 363.1 479.031 357.946 479.64 352.944 479.723 C 341.648 479.739 330.945 476.777 324.578 462.759 C 321.444 455.948 319.834 448.535 319.859 441.037 C 319.803 427.959 315.048 384.963 317.443 315.861 C 318.802 281.306 323.263 200.486 327.131 190.654 Z" style="fill: white;"/>
  <path d="M 772.841 25.341 L 133.541 25.341 C 70.273 25.341 18.985 76.63 18.983 139.899 L 18.983 562.529 C 18.985 625.797 70.273 677.087 133.541 677.087 L 772.841 677.087 C 836.109 677.087 887.397 625.797 887.399 562.529 L 887.399 139.899 C 887.397 76.63 836.109 25.341 772.841 25.341 Z M 826.732 531.954 C 826.732 562.073 802.314 586.489 772.197 586.487 L 134.187 586.487 C 104.068 586.489 79.65 562.073 79.65 531.954 L 79.65 134.074 C 79.65 103.954 104.068 79.538 134.187 79.538 L 772.197 77.804 C 802.314 77.804 826.732 102.222 826.732 132.34 L 826.732 531.954 Z" style="fill: white;"/>
</svg>
