<svg xmlns="http://www.w3.org/2000/svg" viewBox="0 0 500 500"><path fill="white" d="M 255.046 62.36 C 250.816 62.36 247.316 65.653 247.06 69.875 L 230.628 340.514 C 216.633 332.209 199.155 327.524 180.693 327.356 L 179.664 327.356 C 158.889 327.356 139.249 333.067 124.364 343.441 C 108.609 354.419 99.852 369.347 99.706 385.476 C 99.558 401.74 108.167 416.913 123.946 428.202 C 138.87 438.878 158.646 444.862 179.627 445.053 L 180.657 445.053 C 201.432 445.053 221.072 439.341 235.957 428.968 C 251.712 417.99 260.469 403.062 260.615 386.933 L 260.615 386.607 L 291.91 160.326 L 403.168 201.207 C 407.83 202.92 412.911 200.014 413.798 195.127 L 422.885 145.075 C 423.537 141.479 421.669 137.898 418.346 136.375 L 258.378 63.087 C 257.332 62.608 256.196 62.36 255.046 62.36 Z"/></svg>
