<svg viewBox="0 0 500 500" xmlns="http://www.w3.org/2000/svg">
  <path d="M425.829 454.6L75.877 90.415l47.721-23.442L425.829 454.6z" fill="white" stroke="white" stroke-linejoin="round" stroke-width="8"></path>
  <path d="M 255.046 62.36 C 250.816 62.36 247.316 65.653 247.06 69.875 L 240.175 183.269 C 240.054 185.27 240.688 187.243 241.952 188.798 L 269.665 222.9 C 273.548 227.68 281.149 226.464 283.347 220.711 C 283.564 220.143 283.716 219.553 283.799 218.951 L 291.907 160.322 L 403.165 201.203 C 407.827 202.916 412.908 200.01 413.795 195.123 L 422.882 145.071 C 423.534 141.475 421.666 137.894 418.343 136.371 L 258.378 63.087 C 257.332 62.608 256.196 62.36 255.046 62.36 Z" fill="white"></path>
  <path d="M 241.19 290.509 C 236.96 290.51 233.462 293.803 233.206 298.025 L 230.626 340.519 C 216.631 332.214 199.153 327.529 180.691 327.361 L 179.662 327.361 L 179.656 327.361 C 158.882 327.361 139.246 333.073 124.356 343.446 C 108.601 354.424 99.844 369.352 99.698 385.481 C 99.55 401.745 108.159 416.918 123.938 428.207 C 138.862 438.883 158.638 444.867 179.619 445.058 L 180.649 445.058 C 201.424 445.058 221.064 439.346 235.949 428.973 C 251.704 417.995 260.461 403.067 260.607 386.938 L 260.607 386.611 L 270.129 317.764 C 270.5 315.078 269.486 312.387 267.434 310.614 L 246.419 292.456 C 244.965 291.2 243.108 290.509 241.187 290.509 L 241.19 290.509 Z" fill="white"></path>
</svg>
